<?xml version="1.0" encoding="utf-8"?>
<!-- Generator: Adobe Illustrator 16.0.0, SVG Export Plug-In . SVG Version: 6.00 Build 0)  -->
<!DOCTYPE svg PUBLIC "-//W3C//DTD SVG 1.1//EN" "http://www.w3.org/Graphics/SVG/1.1/DTD/svg11.dtd">
<svg version="1.1" id="Layer_1" xmlns="http://www.w3.org/2000/svg" xmlns:xlink="http://www.w3.org/1999/xlink" x="0px" y="0px"
	 width="512px" height="512px" viewBox="0 0 512 512" enable-background="new 0 0 512 512" xml:space="preserve">
<g>
	<path fill="#1C75BC" d="M290.889,54.821c-0.43,0.009-0.852,0.11-1.272,0.131c-2.369,4.1-4.784,8.163-7.276,12.149
		c4.628,1.479,9.251,2.966,13.874,4.441C309.301,61.88,302.232,57.769,290.889,54.821z"/>
	<path fill="#1C75BC" d="M365.889,395.1c-23.168,6.022-45.063-3.665-67.658-4.747c-7.282-2.069-16.082-2.136-17.617-11.708
		c-0.846-6.484,1.488-11.882,6.515-16.339c1.917-1.521,4.111-2.604,6.534-3.313c9.398-0.833,18.723-3.088,28.318-1.755
		c10.854,5.974,25.625,0.394,35.196,10.204c2.757,3.313,3.464,7.454,5.255,11.179C365.959,383.671,371.998,388.313,365.889,395.1z"
		/>
	<path fill="#1C75BC" d="M237.919,419.648c-0.143-0.285-0.256-0.565-0.405-0.856c1.553-2.606,3.124-5.213,4.694-7.842
		c2.302-4.445,0.922-8.109-2.76-11.293c-4.284-2.559-8.425-1.713-12.494,0.494c-1.714,1.195-3.195,2.552-4.427,4.207
		c-1.583,2.225-2.713,4.616-4.135,6.937c-2.166,1.784-4.831,1.713-7.407,1.844c-1.921-0.088-3.92-0.1-5.866,0.113
		c-3.064,0.339-5.92,1.196-8.454,2.934c-2.118,3.695-5.509,5.844-9.603,7.164c-0.012,0.035-0.012,0.083-0.03,0.125
		c3.415,11.078,6.051,22.245,8.972,33.912c0.375,0.97,0.756,1.921,1.036,2.909c13.678,3.058,19.544-8.889,29.355-13.231
		C228.447,437.324,232.178,428.013,237.919,419.648z"/>
	<path fill="#1C75BC" d="M365.889,395.1c-0.564-8.715-10.717-8.168-14.923-13.396c13.571-9.578,28.63-16.469,44.843-21.264
		c2.601,0.272,4.7,1.366,6.301,3.283C396.297,380.446,388.496,395.159,365.889,395.1z"/>
	<path fill="#1C75BC" d="M242.208,410.95c-1.904-3.57-3.784-7.157-5.688-10.739c-7.407-7.371-6.062-15.582-2.618-24.007
		c3.124-3.902,7.146-5.967,12.524-5.313c9.478,3.105,13.571,9.639,13.727,18.664c-0.678,2.242-1.82,4.271-3.326,6.115
		C251.954,400.771,247.075,405.856,242.208,410.95z"/>
	<path fill="#1C75BC" d="M402.108,363.723c-2.117-0.189-4.235-0.369-6.366-0.56c-1.904-1.464-3.26-3.272-3.992-5.485
		c-0.969-6.692,2.561-10.697,8.956-13.018c10.065,0.868,14.409,6.733,15.479,15.434C412.521,364.77,407.314,364.27,402.108,363.723z
		"/>
	<path fill="#1C75BC" d="M425.609,312.259c4.964-0.56,9.988,4.01,14.908-0.143c3.124-2.682,6.225-2.429,9.295,0.071
		c0.179,1.569,0.356,3.146,0.548,4.729c-4.147,7.24-8.843,13.928-18.664,15.093c-2.144,0.738-4.087,0.452-5.782-1.027l-1.738-1.097
		C415.001,323.349,421.605,317.887,425.609,312.259z"/>
	<path fill="#1C75BC" d="M430.645,330.238c2.782-9.294,14.493-7.141,19.717-13.32c-0.036,4.384-0.078,8.763-0.114,13.166
		C443.749,335.082,437.217,334.594,430.645,330.238z"/>
	<path fill="#1C75BC" d="M430.645,330.238c6.55,2.129,13.094,2.319,19.603-0.154c-3.302,4.866-6.608,9.732-9.93,14.6
		c1.563-10.356-11.655-7.259-14.402-13.7C427.525,330.893,429.097,330.643,430.645,330.238z"/>
	<path fill="#1C75BC" d="M449.813,312.188c-3.095-0.022-6.187-0.041-9.294-0.07c0.556-6.113-7.104-12.049-0.428-18.281
		C444.888,299.246,448.951,304.982,449.813,312.188z"/>
	<path fill="#1C75BC" d="M312.427,31.433c-0.655-1.859-0.377-4.025-0.084-6.188c-1.522-1.154-3.054-2.297-4.587-3.442
		c-0.805,2.633-1.953,5.301-3.602,8.002c-1.434,2.361-2.844,4.756-4.235,7.154c0.56,0.77,1.209,1.529,2.101,2.287
		c4.01,1.297,7.99,2.594,11.977,3.9C312.854,39.375,312.318,35.399,312.427,31.433z"/>
	<path fill="#1C75BC" d="M183.641,395.742c0.369,4.594-0.179,9.233-1.481,13.619c0.791,2.041,1.529,4.087,2.249,6.128
		c3.778,2.124,8.252,2.255,12.465,3.146c3.236,0.013,6.461,0.036,9.721,0.061c9.139-1.541,15.594-6.479,20.009-13.916h-0.03
		c-3.397-6.059-8.27-10.728-14.85-13.821c-6.307-3.403-6.414-12.648-15.07-13.833c-8.502-0.393-14.184,2.125-14.809,9.896
		c0.797,2.345,1.314,4.782,1.612,7.246C183.522,394.761,183.641,395.255,183.641,395.742z"/>
	<path fill="#1C75BC" d="M226.478,446.611c-13.286-2.105-22.287,3.998-29.438,13.685c0.018,0.286,0.042,0.554,0.06,0.833
		c3.51,11.44,9.899,21.097,17.253,30.461c0.536,0.311,0.988,0.637,1.57,0.929c3.195-12.976,6.17-25.006,9.073-36.84
		C225.341,452.621,225.829,449.599,226.478,446.611z"/>
	<path fill="#1C75BC" d="M61.568,166.024c10.935,9.906,20.431-5.527,30.741-6.509c1.66-2.847,3.338-5.703,5.004-8.561
		c-2.958-3.513-6.354-3.403-10.014-1.041l-25.428,9.665C61.764,161.717,61.675,163.874,61.568,166.024z"/>
	<path fill="#1C75BC" d="M171.867,127.287c-0.006,3.013-0.018,6.026-0.024,9.034c-8.18,8.728-16.468,6.809-24.81,0.25
		c0-1.41,0.018-2.82,0.072-4.218C155.356,130.663,163.615,128.973,171.867,127.287z"/>
	<path fill="#1C75BC" d="M345.997,316.888c5.517-5.724,12.918-4.379,19.892-4.641c1.577,20.12,18.85,25.666,34.817,32.413
		c-1.644,4.617-3.31,9.221-4.964,13.826c-2.861,2.486-6.176,4.021-10.167,4.141c-13.958-3.552-30.003-4.069-35.349-20.489
		c-0.992-4.938-2.469-9.739-5.733-13.922C342.514,324.146,343.553,320.428,345.997,316.888z"/>
	<path fill="#1C75BC" d="M425.609,312.259c-0.465,5.878-0.935,11.77-1.421,17.634c-14.941-8.27-7.325-15.296,1.403-22.253
		C425.593,309.18,425.593,310.711,425.609,312.259z"/>
	<path fill="#1C75BC" d="M355.989,335.558c-0.917,19.871,23.629,11.029,29.819,22.905c-2.369,18.717-17.375,14.006-29.875,13.928
		c-9.703-9.578-26.059,2.374-35.103-9.347c-1.504-1.535-1.929-3.302-1.444-5.307c2.497-5.402,9.133-7.539,11.637-12.936
		c1.439-6.009-1.397-12.554,2.75-18.128c1.688-1.536,3.723-2.304,6.066-2.304C345.303,327.99,351.573,330.607,355.989,335.558z"/>
	<path fill="#1C75BC" d="M271.136,381.041c-9.187-1.623-8.937,7.741-14.28,10.608c-3.492-6.433-6.955-12.862-10.429-19.288
		c0.036-1.029,0.083-2.047,0.119-3.083c1.785-6.438,6.723-10.597,12.022-14.534c3.851-2.314,7.949-4.147,12.3-5.598
		c2.276-0.613,4.604-0.857,6.983-0.869c3.646,0.153,7.045,1.147,10.09,3.046c3.589,3.271,6.267,6.782,3.464,11.709
		c-1.767,4.85-3.54,9.696-5.308,14.559C280.773,377.495,274.866,375.199,271.136,381.041z"/>
	<path fill="#1C75BC" d="M355.934,372.391c9.18-6.115,23.912-1.861,29.875-13.928c3.318,0.012,6.627,0.019,9.935,0.023
		c0,1.564,0,3.116,0,4.677c-11.279,13.771-27.652,16.938-44.776,18.539C352.62,378.603,354.287,375.491,355.934,372.391z"/>
	<path fill="#1C75BC" d="M291.404,363.032c-1.742-3.046-3.497-6.099-5.252-9.145c-1.404-4.159,1.207-6.159,4.771-7.65
		c2.47-0.472,4.921-0.452,7.372,0.089c6.109,2.617,10.936,5.973,8.865,13.303c-3.73,2.867-7.11,6.854-12.764,3.309
		C293.404,362.961,292.404,362.984,291.404,363.032z"/>
	<path fill="#1C75BC" d="M294.396,362.938c3.879-1.631,7.734-3.248,11.627-4.873c5.146-4.017,10.103-3.6,14.885,0.554
		c0.381,1.477,0.354,2.963-0.076,4.427C312.033,360.771,303.168,372.29,294.396,362.938z"/>
	<path fill="#1C75BC" d="M206.594,418.696c6.235-5.165,10.84-12.389,20.009-13.916c0.03,3.124,0.03,6.241,0.03,9.347
		c-3.772,4.879-7.568,9.746-14.916,4.617C210.01,418.72,208.284,418.708,206.594,418.696z"/>
	<path fill="#1C75BC" d="M211.717,418.744c4.961-1.542,9.941-3.082,14.916-4.617C224.366,423.242,221.694,431.221,211.717,418.744z"
		/>
	<path fill="#1C75BC" d="M395.689,247.378c-7.676-11.31,4.224-13.467,9.981-18.517c3.345,2.46,4.583,5.703,4.189,9.572
		c-1.373-0.125-2.742-0.214-4.118-0.247C402.382,241.256,399.032,244.312,395.689,247.378z"/>
	<path fill="#1C75BC" d="M236.973,376.454c-3.421-7.461-6.848-14.935-10.269-22.399c8.751-5.646,14.297-0.226,19.907,5.003
		c3.093,4.438,3.849,8.854-0.173,13.232l-0.012,0.071C243.286,373.729,240.138,375.098,236.973,376.454z"/>
	<path fill="#1C75BC" d="M176.871,201.174c-0.542-9.763,4.444-14.392,14.933-13.893c12.971-0.705,23.65-0.327,26.797,15.829
		c4.171,21.517-10.471,28.305-26.72,35.126C184.866,226.591,172.474,216.833,176.871,201.174z"/>
	<path fill="#1C75BC" d="M152.263,366.227c4.777,0,9.002,0.888,12.685,2.388c-3.891-14.208-13.083-25.94-22.067-37.769
		c-2.249,7.752-4.492,15.504-6.735,23.263c-1.63,5.497-2.921,10.972-0.303,16.29C140.328,367.78,145.795,366.227,152.263,366.227z"
		/>
	<path fill="#1C75BC" d="M216.667,298.369c-11.893,5.635-18.646,2.014-19.556-10.107c-0.69-8.938-0.262-17.949-0.333-26.923
		c0.345-3.198,2.261-5.209,5.414-6.321c4.997-0.301,6.967,3.361,9.478,6.292C220.909,272.779,214.936,286.023,216.667,298.369z"/>
	<path fill="#1C75BC" d="M201.847,256.63c-1.678,1.57-3.374,3.136-5.069,4.709c-4.82-3.644-4.938-8.737-4.945-13.868
		c4.891,0.03,9.799,0.044,14.702,0.078C209.551,252.608,205.488,254.527,201.847,256.63z"/>
	<path fill="#1C75BC" d="M186.848,145.617c5.533-5.715,12.928-4.358,19.895-4.611c-1.255,8.282-7.692,9.329-14.939,9.243
		C190.155,148.708,188.496,147.158,186.848,145.617z"/>
	<path fill="#1C75BC" d="M201.847,256.63c1.57-3.022,3.117-6.047,4.694-9.082c18.979-0.997,0.155,10.231,5.129,13.765
		C208.385,259.748,205.119,258.188,201.847,256.63z"/>
	<path fill="#1C75BC" d="M311.169,247.405c-3.294,1.556-6.603,3.1-9.881,4.659c0.749-4.681-2.654-11.689,3.046-13.461
		C310.271,236.77,310.034,243.541,311.169,247.405z"/>
	<path fill="#1C75BC" d="M340.877,326.085c-1.619,0.03-3.236,0.048-4.845,0.071c-2.08,2.23-3.005,5.415-6.282,6.664
		c-2.189,0.387-4.354,0.268-6.479-0.298c-5.569-3.444-12.233-4.22-18.324-6.42c-4.143-2.063-7.497-4.777-8.688-9.232
		c3.26-9.415,13.694-5.415,19.948-9.237c5.587,5.322,14.667-2.335,19.817,4.604c3.332,1.546,6.651,3.1,9.971,4.651
		c4.023,2.832,1.305,5.677,0,8.525C344.719,328.394,343.005,328.619,340.877,326.085z"/>
	<path fill="#1C75BC" d="M296.261,316.87c3.302,1.229,6.587,2.463,9.869,3.688c-0.856,5.885-6.562,8.079-10.298,11.833
		c-1.874,1.279-3.934,2.196-6.141,2.874c-4.713,1.041-9.252,0.727-13.57-1.444c-3.012-2.005-4.671-4.695-4.7-8.193
		C275.663,312.795,285.42,313.497,296.261,316.87z"/>
	<path fill="#1C75BC" d="M211.723,390.959c-11.667,1.666-13.018-6.438-15.07-13.833
		C220.624,363.842,210.211,383.023,211.723,390.959z"/>
	<path fill="#1C75BC" d="M271.421,353.864c-3.338,1.534-6.683,3.063-10.024,4.586c-6.891-1.242-10.424-6.234-14.203-10.972
		c-0.237-0.964-0.463-1.914-0.684-2.885c2.945-3.052,5.89-6.109,8.835-9.156c4.7,0.144,9.506-0.54,14.041,1.272
		c4.636,2.642,6.331,6.557,5.741,11.459C274.324,350.313,273.08,352.204,271.421,353.864z"/>
	<path fill="#1C75BC" d="M241.56,363.199c-4.784-3.297-7.758-9.116-14.856-9.146c5.806-4.587,9.228-13.506,19.806-9.46l0.232,0.196
		C260.068,354.596,248.789,358.392,241.56,363.199z"/>
	<path fill="#1C75BC" d="M266.459,340.037c-4.664,0.422-8.912,0.041-11.114-4.6c5.36-3.272,10.715-6.545,16.076-9.812
		c1.868,1.696,3.742,3.397,5.616,5.105C278.912,339.138,270.636,337.58,266.459,340.037z"/>
	<path fill="#1C75BC" d="M336.027,312.235c-6.944-0.25-14.346,1.105-19.818-4.604C320.797,316.662,336.789,283.223,336.027,312.235z
		"/>
	<path fill="#1C75BC" d="M166.958,316.918c-3.725-4.736-0.935-8.063,3.004-10.832c0.72-0.512,3.808,0.565,3.784,0.688
		c-0.452,3.38-1.166,6.734-1.838,10.092C170.272,319.112,168.636,319.231,166.958,316.918z"/>
	<path fill="#1C75BC" d="M166.958,316.918c1.648-0.03,3.302-0.048,4.95-0.054c-0.761,3.991,0.893,11.355-4.646,10.459
		C160.444,326.229,166.244,320.595,166.958,316.918z"/>
	<path fill="#1C75BC" d="M443.095,314.585c4.136-7.576-5.733-13.374-3.004-20.75c-4.517-14.431-16.444-23.449-27.72-32.969
		c-0.291-5.589-0.588-11.183-0.891-16.774c-0.536-1.881-1.083-3.77-1.619-5.659c-1.694-0.832-3.249-0.916-4.653-0.423
		c-2.767-1.07-4.895-0.969-6.621-0.095c3.028-2.709,6.878-5.024,7.085-9.054c-3.302-12.37-8.989-21.002-24.863-13.848l-0.004,0.036
		c-1.543,2.719-1.798,5.581-0.937,8.541c3.106,5.554-0.416,12.848,4.534,17.909c-3.183-0.304-5.604,0.82-7.67,2.594
		c-4.017,0.143-7.627,0.881-10.846,2.121c-6.668-1.47-13.308-2.946-19.974-4.415c-6.151,2.921-15.212-3.055-19.49,5.554
		c-5.087-0.479-10.167,4.099-15.255,0.053c-5.688-2.843-7.223,1.937-9.893,4.655c-5.416,4.666-10.496,9.39-18.879,9.552
		c-11.228,0.209-17.063,7.061-15.582,16.605c3.184,20.422-8.323,22.498-25.512,20.325c-8.062-1.017-16.403-0.175-24.637-0.175
		c-16.849-8.844-7.854-25.993-14.231-38.182c-2.046-4.558-5.706-7.952-9.269-11.417c0.577-0.583,1.243-1.053,1.755-1.726
		c2.005-3.183,2.975-6.622,2.897-10.313c-3.635-13.306-10.381-25.227-18.456-36.54c6.194-2.4,10.424-6.625,12.44-12.911v-37.033
		c1.714-3.905-0.469-6.491-3.486-8.787c-3.147-1.809-6.532-2.716-10.25-2.597c-8.687-0.845-17.736,1.55-26.023-2.618
		c-1.702-1.246-3.35-2.538-4.938-3.894c-6.307,3.159-14.952,2.234-20.699,6.372c-8.271,0.075-14.874,2.689-19.842,6.827
		c-1.381,0.057-2.755,0.116-4.123,0.169c-2.928,1.654-6.681,1.646-9.216,4.028c-2.041,2.576-4.1,5.143-5.01,8.183
		c-9.031-1.877-17.474,6.515-26.494,4.864c-0.607,10.983-0.958,22.049-1.083,33.136c-0.006-0.006-0.006-0.012-0.012-0.018
		c-0.012,1.672,0.018,3.343,0.012,5.024c-0.012,3.799-0.023,7.604,0.03,11.411c0.036,2.701,0.125,5.399,0.196,8.1
		c0.054,2.333,0.078,4.662,0.167,6.988c0.012,0.029,0.023,0.041,0.036,0.068c0.398,10.67,1.131,21.305,2.106,31.905
		c-0.023-0.016-0.042-0.03-0.065-0.045c0.095,1.062,0.244,2.101,0.345,3.158c0.185,1.931,0.31,3.873,0.524,5.802
		c0.053,0.06,0.101,0.114,0.143,0.175c1.981,17.729,4.932,35.229,8.913,52.324c-0.173,0.285-0.345,0.576-0.5,0.868
		c0.083,0.272,0.119,0.57,0.202,0.856c0.244,0.612,0.518,1.202,0.726,1.844c6.58,19.521,15.493,38.263,24.102,56.961
		c1.511,3.272,2.754,6.663,3.908,10.092c0.732-1.189,1.339-2.403,1.874-3.637c4.671-2.443,8.96-6.271,12.435-11.715
		c9.561-14.979,17.099-31.092,26.975-45.876c0.054,0.208,0.06,0.404,0.125,0.625c-0.987,14.957,6.616,25.928,16.105,36.019
		c12.779,2.386,20.609,11.565,23.489,22.3c4.873-2.618,9.906-4.893,15.587-5.736c7.907-1.642,6.901,5.117,9.466,8.556
		c4.314,6.879,9.424,12.722,19.045,12.799c3.313-1.529,6.633-3.04,9.947-4.569c0.155-7.919,0.304-15.832,0.452-23.757
		c3.254-6.253,0.238-12.702,0.643-19.073c1.708-4.771,6.157-6.879,10.334-9.259c4.51-2.498,8.716-5.413,13.005-8.229
		c5.027-3.587,10.626-6.467,15.333-10.465c4.58-6.657,12.464-6.461,19.425-8.217c7.621-3.456,15.846-5.205,24-7.067
		c4.997-1.124,10.12-3.158,14.564,1.196c3.527,2.968,7.539,5.059,12.478,5.2c5.33-0.654,10.636-1.333,14.878-4.142
		c-0.469,20.489,15.422,27.892,33.212,33.817c7.699,2.248,14.2,6.633,21.34,9.876c8.044-5.13,16.096-10.27,24.132-15.41
		c6.396-8.58-0.272-12.618-6.799-16.706c-1.578-1.208-3.063-2.48-4.6-3.771c-2.439-2.929-2.487-5.796-1.868-8.628
		C432.142,319.535,437.396,320.72,443.095,314.585z"/>
	<path fill="#1C75BC" d="M147.033,136.571c8.288,1.77,16.552,1.88,24.81-0.25c1.672,3.105,3.35,6.209,5.034,9.308
		C166.631,143.49,152.834,151.415,147.033,136.571z"/>
	<path fill="#1C75BC" d="M410.695,200.332c-1.847-1.487-3.445-3.266-5.25-4.789c-2.413-0.83-4.598-1.939-6.58-3.26
		c-0.06-0.009-0.101-0.039-0.159-0.047c-0.674-0.134-1.321-0.208-1.987-0.298c-0.013-0.411-0.023-0.83-0.028-1.244
		c-3.48-2.82-6.179-6.378-8.067-10.346c-15.396-13.19-30.791-26.375-46.182-39.558c-0.928-7.206-6.948-10.528-12.564-14.155
		c-1.061-0.604-2.161-1.109-3.297-1.52c0.104-1.978,0.189-3.959,0.285-5.935c-0.195-0.568-0.393-1.142-0.588-1.71
		c-1.381-25.134-2.197-50.357-14.381-73.646c-3.438-3.305-6.67-6.928-11.953-6.914c-4.194,7.229-8.271,14.567-12.488,21.761
		c3.749,1.133,6.213,3.087,6.284,6.604c-3.397-0.841-6.802-1.109-10.229-0.027c-3.926,6.373-8.072,12.539-12.63,18.352v0.002
		c-6.093,7.752-12.935,14.844-21.104,20.779c0.155,0.369,0.405,0.7,0.571,1.06c-3.178,1.862-5.795,4.319-7.955,7.092
		c-0.868,0.56-1.66,1.181-2.451,1.814c-2.736,0.092-5.277,0.467-7.633,1.089c-0.714-0.313-1.398-0.616-2.201-0.922
		c-3.868,0.934-7.651,1.112-11.239,0.654c-15.665,4.04-31.33,8.083-47.001,12.12c-2.629,2.338-3.814,5.185-3.385,8.567
		c1.231,4.433,5.366,6.693,8.395,9.775c3.32-0.003,6.651-0.006,9.971-0.012c0.672-0.256,1.38-0.396,2.1-0.515
		c-2.861,1.99-5.485,4.245-7.05,7.529c-4.843,10.831-4.909,21.611,0.315,32.369c25.613,21.764,25.613,21.764,8.132,49.408
		c-0.827,1.303-1.576,2.645-2.665,3.828c-0.012,3.063-0.047,6.141-0.065,9.207c0.417,0.75,0.845,1.482,1.297,2.208
		c2.606,2.265,5.866,3.618,8.96,5.176c3.689,3.587,2.404,8.494,3.867,12.646c1.875,11.396-0.417,23.859,9.4,33.362
		c7.508,5.508,16.427,6.586,25.482,6.66c12.125,0.104,28.094,2.394,31.134-11.494c3.927-17.891,17.414-26.214,30.414-36.204
		c2.327-2.638,4.261-5.66,8.383-5.919c5.897,1.145,11.792,1.02,17.642-0.682c6.004-2.288,12.404-3.805,17.826-7.359
		c2.33-2.154,3.771-4.727,4.438-7.703c0.076-0.411,0.184-0.814,0.268-1.225c3.547-1.78,6.543-4.163,8.967-7.012
		c2.147-0.877,4.23-2.046,6.3-3.284c1.649-0.423,3.214-0.937,4.678-1.583c0.255-0.063,0.5-0.152,0.75-0.22
		c4.497,1.371,9.001,2.751,13.505,4.132c9.098,0.289,7.961-4.049,4.844-9.272c-0.685-0.64-1.375-1.276-2.054-1.916
		c6.29,2.864,13.784,4.322,15.521,12.387c2.167,3.611,4.262,7.252,6.646,10.719c1.561,1.573,3.409,2.655,5.6,3.23
		C417.315,229.414,419.137,214.787,410.695,200.332z"/>
	<path fill="#1C75BC" d="M340.877,326.085c1.712-0.214,3.414-0.435,5.12-0.672c4.881,2.053,13.417,1.018,9.992,10.145
		C349.219,334.808,343.75,332.236,340.877,326.085z"/>
	<path fill="#1C75BC" d="M320.908,358.617c-4.949-0.19-9.93-0.357-14.885-0.554c-3.285-2.553-6.558-5.099-9.812-7.655
		c4.593-8.925,13.54-7.414,21.681-7.866c5.526,0.125,11.055,0.326,15.67,3.761c0.811,1.034,1.619,2.082,2.397,3.123
		C332.939,355.298,327.762,358.129,320.908,358.617z"/>
	<path fill="#1C75BC" d="M330.964,330.732c1.69-1.529,3.373-3.053,5.068-4.576c0.161,5.354,1.446,9.639,6.39,13.702
		c5.969,4.896,5.178,5.718-6.461,9.566l-0.6-0.768c-3.977-2.601-11.211-1.311-11.514-8.342
		C324.266,335.86,328.139,333.623,330.964,330.732z"/>
	<path fill="#1C75BC" d="M266.459,340.037c3.516-3.101,7.057-6.211,10.578-9.305c4.6,0.041,9.181,0.054,13.761,0.095
		c5.052,2.886,5.95,7.241,5.011,12.23c-0.971,2.208-2.279,4.207-3.934,5.998c-1.909,1.605-3.818,3.23-5.723,4.832
		c-3.351-0.042-6.699-0.078-10.055-0.112c-1.66-1.357-3.207-2.799-4.631-4.38C269.803,346.278,268.119,343.154,266.459,340.037z"/>
	<path fill="#1C75BC" d="M241.56,363.199c-0.601-6.711,10.162-10.639,5.182-18.42c9.115,0.643,13.82,5.365,14.66,13.671
		c-3.291,6.188-8.29,10.805-14.964,13.84C244.814,369.255,243.19,366.221,241.56,363.199z"/>
	<path fill="#1C75BC" d="M271.468,349.396c1.535,1.463,3.083,2.921,4.63,4.379c-1.553,0.034-3.123,0.064-4.677,0.089
		C271.421,352.383,271.438,350.883,271.468,349.396z"/>
	<path fill="#1C75BC" d="M291.875,349.057c-0.506-1.278-0.643-2.588-0.393-3.933c4.975-5.23,10.994-7.961,18.683-6.64
		c5.302,1.563,11.313,2.521,9.882,9.911c-7.941,0.666-15.893,1.346-23.834,2.013C294.874,349.658,293.43,349.206,291.875,349.057z"
		/>
	<path fill="#1C75BC" d="M311.003,344.314c-6.515,0.273-13.012,0.535-19.521,0.81c-0.232-4.766-0.436-9.53-0.68-14.297
		c-0.006,0,0.715-0.22,0.715-0.22c11.59-6.379,23.145-6.401,34.651,0.166c1.593-0.023,3.206-0.035,4.794-0.041
		c-1.797,3.193-3.6,6.377-5.408,9.584C321.718,344.826,315.025,340.376,311.003,344.314z"/>
	<path fill="#1C75BC" d="M326.17,330.773c-11.556-0.054-23.104-0.106-34.65-0.166c-0.524-10.133,8.354-8.426,14.61-10.05
		C313.781,322.325,324.354,319.089,326.17,330.773z"/>
	<path fill="#1C75BC" d="M311.003,344.314c4.868-1.34,9.703-2.672,14.554-4.011c3.284,2.784,6.543,5.569,9.811,8.354
		c-5.104-0.097-10.208-0.18-15.319-0.262C317.042,347.039,314.02,345.672,311.003,344.314z"/>
</g>
<text transform="matrix(1 0 0 1 87.1797 300.9639)" fill="#FFFFFF" font-family="'MyriadPro-Regular'" font-size="68.6978">TRAVE</text>
<text transform="matrix(1 0 0 1 87.1797 300.9639)" fill="none" stroke="#FFFFFF" font-family="'MyriadPro-Regular'" font-size="68.6978">TRAVE</text>
<text transform="matrix(1 0 0 1 272.4551 300.9639)" fill="#FFFFFF" font-family="'MyriadPro-Regular'" font-size="68.6978">L</text>
<text transform="matrix(1 0 0 1 272.4551 300.9639)" fill="none" stroke="#000000" stroke-miterlimit="10" font-family="'MyriadPro-Regular'" font-size="68.6978">L</text>
<text transform="matrix(1 0 0 1 304.8809 300.9639)" font-family="'MyriadPro-Regular'" font-size="68.6978">ynx</text>
<text transform="matrix(1 0 0 1 304.8809 300.9639)" fill="none" stroke="#000000" stroke-miterlimit="10" font-family="'MyriadPro-Regular'" font-size="68.6978">ynx</text>
</svg>
