<?xml version="1.0" encoding="utf-8"?>
<!-- Generator: Adobe Illustrator 16.0.0, SVG Export Plug-In . SVG Version: 6.00 Build 0)  -->
<!DOCTYPE svg PUBLIC "-//W3C//DTD SVG 1.1//EN" "http://www.w3.org/Graphics/SVG/1.1/DTD/svg11.dtd">
<svg version="1.1" id="Layer_1" xmlns="http://www.w3.org/2000/svg" xmlns:xlink="http://www.w3.org/1999/xlink" x="0px" y="0px"
	 width="528.611px" height="120.979px" viewBox="0 0 528.611 120.979" enable-background="new 0 0 528.611 120.979"
	 xml:space="preserve">
<text transform="matrix(1 0 0 1 9.1772 89.1372)"><tspan x="0" y="0" font-family="'Arial'" font-size="92.2444">TRAVE   </tspan><tspan x="307.445" y="0" fill="#1C75BC" font-family="'Arial'" font-size="92.2444">Lyn</tspan></text>
<g>
	<path fill-rule="evenodd" clip-rule="evenodd" fill="#1C75BC" d="M494.739,31.987c-0.077,0.001-0.153,0.02-0.229,0.023
		c-0.43,0.743-0.866,1.478-1.317,2.2c0.838,0.268,1.675,0.537,2.512,0.804C498.073,33.265,496.793,32.521,494.739,31.987z"/>
	<path fill-rule="evenodd" clip-rule="evenodd" fill="#1C75BC" d="M508.318,93.592c-4.194,1.09-8.158-0.664-12.249-0.859
		c-1.318-0.375-2.911-0.387-3.189-2.12c-0.153-1.174,0.27-2.151,1.179-2.958c0.348-0.275,0.745-0.472,1.184-0.6
		c1.701-0.151,3.39-0.559,5.127-0.317c1.965,1.082,4.639,0.071,6.372,1.847c0.499,0.6,0.627,1.35,0.951,2.024
		C508.331,91.523,509.423,92.363,508.318,93.592z"/>
	<path fill-rule="evenodd" clip-rule="evenodd" fill="#1C75BC" d="M485.15,98.037c-0.026-0.051-0.047-0.103-0.073-0.155
		c0.281-0.472,0.565-0.943,0.85-1.419c0.417-0.805,0.167-1.468-0.5-2.045c-0.775-0.462-1.525-0.31-2.262,0.09
		c-0.311,0.217-0.578,0.462-0.802,0.762c-0.286,0.403-0.491,0.836-0.748,1.256c-0.393,0.323-0.875,0.31-1.341,0.333
		c-0.349-0.016-0.71-0.018-1.063,0.021c-0.555,0.061-1.071,0.216-1.53,0.531c-0.384,0.669-0.998,1.058-1.738,1.297
		c-0.003,0.006-0.003,0.015-0.006,0.022c0.618,2.006,1.096,4.027,1.624,6.139c0.068,0.176,0.137,0.348,0.188,0.527
		c2.477,0.554,3.538-1.609,5.314-2.396C483.435,101.237,484.11,99.551,485.15,98.037z"/>
	<path fill-rule="evenodd" clip-rule="evenodd" fill="#1C75BC" d="M508.318,93.592c-0.103-1.578-1.94-1.479-2.702-2.425
		c2.457-1.734,5.184-2.982,8.118-3.85c0.471,0.05,0.852,0.248,1.141,0.595C513.823,90.939,512.411,93.603,508.318,93.592z"/>
	<path fill-rule="evenodd" clip-rule="evenodd" fill="#1C75BC" d="M485.926,96.462c-0.345-0.646-0.685-1.295-1.029-1.944
		c-1.342-1.334-1.098-2.821-0.475-4.346c0.565-0.707,1.294-1.08,2.268-0.962c1.716,0.563,2.457,1.745,2.485,3.379
		c-0.123,0.406-0.33,0.773-0.603,1.107C487.691,94.619,486.807,95.54,485.926,96.462z"/>
	<path fill-rule="evenodd" clip-rule="evenodd" fill="#1C75BC" d="M514.875,87.912c-0.383-0.035-0.767-0.067-1.152-0.102
		c-0.345-0.265-0.59-0.593-0.723-0.993c-0.175-1.212,0.464-1.937,1.622-2.357c1.822,0.157,2.608,1.22,2.802,2.794
		C516.76,88.102,515.818,88.011,514.875,87.912z"/>
	<path fill-rule="evenodd" clip-rule="evenodd" fill="#1C75BC" d="M519.129,78.595c0.899-0.102,1.809,0.726,2.7-0.026
		c0.564-0.485,1.126-0.44,1.682,0.013c0.033,0.284,0.065,0.57,0.1,0.856c-0.751,1.311-1.601,2.521-3.379,2.732
		c-0.389,0.134-0.74,0.082-1.047-0.186l-0.314-0.198C517.209,80.603,518.405,79.613,519.129,78.595z"/>
	<path fill-rule="evenodd" clip-rule="evenodd" fill="#1C75BC" d="M520.042,81.85c0.504-1.683,2.624-1.292,3.569-2.412
		c-0.007,0.794-0.014,1.587-0.021,2.384C522.414,82.727,521.231,82.638,520.042,81.85z"/>
	<path fill-rule="evenodd" clip-rule="evenodd" fill="#1C75BC" d="M520.042,81.85c1.186,0.386,2.37,0.42,3.548-0.028
		c-0.597,0.881-1.195,1.762-1.797,2.643c0.283-1.875-2.11-1.314-2.607-2.48C519.476,81.968,519.761,81.923,520.042,81.85z"/>
	<path fill-rule="evenodd" clip-rule="evenodd" fill="#1C75BC" d="M523.511,78.582c-0.56-0.004-1.12-0.008-1.682-0.013
		c0.1-1.107-1.286-2.182-0.078-3.31C522.621,76.239,523.355,77.277,523.511,78.582z"/>
	<path fill-rule="evenodd" clip-rule="evenodd" fill="#1C75BC" d="M498.639,27.753c-0.119-0.336-0.068-0.729-0.016-1.12
		c-0.275-0.209-0.553-0.416-0.83-0.623c-0.146,0.477-0.354,0.96-0.652,1.449c-0.259,0.428-0.515,0.861-0.767,1.295
		c0.102,0.139,0.219,0.277,0.38,0.414c0.727,0.235,1.446,0.47,2.169,0.706C498.716,29.191,498.62,28.471,498.639,27.753z"/>
	<path fill-rule="evenodd" clip-rule="evenodd" fill="#1C75BC" d="M475.323,93.708c0.067,0.832-0.032,1.672-0.268,2.466
		c0.143,0.37,0.276,0.74,0.407,1.109c0.684,0.384,1.493,0.408,2.256,0.57c0.586,0.002,1.17,0.006,1.761,0.011
		c1.654-0.279,2.823-1.173,3.622-2.519h-0.006c-0.614-1.097-1.497-1.942-2.688-2.502c-1.142-0.616-1.161-2.29-2.728-2.504
		c-1.54-0.071-2.568,0.385-2.682,1.792c0.145,0.424,0.238,0.866,0.292,1.312C475.301,93.531,475.323,93.62,475.323,93.708z"/>
	<path fill-rule="evenodd" clip-rule="evenodd" fill="#1C75BC" d="M483.079,102.918c-2.405-0.381-4.035,0.724-5.33,2.478
		c0.004,0.052,0.008,0.101,0.011,0.151c0.636,2.071,1.793,3.819,3.124,5.515c0.097,0.056,0.179,0.115,0.284,0.167
		c0.578-2.349,1.117-4.527,1.643-6.669C482.873,104.006,482.96,103.459,483.079,102.918z"/>
	<path fill-rule="evenodd" clip-rule="evenodd" fill="#1C75BC" d="M473.192,45.107c-0.002,0.545-0.004,1.091-0.005,1.635
		c-1.48,1.58-2.981,1.233-4.491,0.045c0-0.255,0.003-0.511,0.013-0.764C470.203,45.718,471.698,45.412,473.192,45.107z"/>
	<path fill-rule="evenodd" clip-rule="evenodd" fill="#1C75BC" d="M504.716,79.433c0.999-1.037,2.339-0.793,3.602-0.84
		c0.285,3.643,3.412,4.647,6.304,5.868c-0.298,0.836-0.6,1.669-0.899,2.503c-0.518,0.45-1.117,0.728-1.84,0.75
		c-2.527-0.643-5.433-0.737-6.399-3.709c-0.18-0.894-0.447-1.763-1.038-2.521C504.085,80.747,504.274,80.074,504.716,79.433z"/>
	<path fill-rule="evenodd" clip-rule="evenodd" fill="#1C75BC" d="M519.129,78.595c-0.084,1.064-0.169,2.13-0.257,3.192
		c-2.705-1.497-1.326-2.769,0.254-4.029C519.126,78.037,519.126,78.314,519.129,78.595z"/>
	<path fill-rule="evenodd" clip-rule="evenodd" fill="#1C75BC" d="M506.526,82.813c-0.167,3.598,4.277,1.997,5.398,4.147
		c-0.429,3.389-3.146,2.536-5.409,2.521c-1.756-1.734-4.717,0.43-6.354-1.692c-0.272-0.278-0.35-0.598-0.262-0.96
		c0.452-0.978,1.653-1.365,2.106-2.341c0.261-1.088-0.253-2.273,0.498-3.282c0.306-0.278,0.674-0.417,1.099-0.417
		C504.59,81.442,505.726,81.917,506.526,82.813z"/>
	<path fill-rule="evenodd" clip-rule="evenodd" fill="#1C75BC" d="M491.164,91.047c-1.663-0.294-1.618,1.401-2.586,1.92
		c-0.632-1.165-1.259-2.329-1.888-3.492c0.007-0.186,0.015-0.37,0.021-0.558c0.323-1.165,1.218-1.918,2.177-2.631
		c0.697-0.419,1.439-0.751,2.227-1.014c0.412-0.111,0.834-0.155,1.265-0.158c0.66,0.028,1.275,0.208,1.827,0.552
		c0.649,0.592,1.134,1.228,0.627,2.12c-0.32,0.878-0.642,1.756-0.961,2.636C492.909,90.405,491.839,89.99,491.164,91.047z"/>
	<path fill-rule="evenodd" clip-rule="evenodd" fill="#1C75BC" d="M506.515,89.481c1.662-1.107,4.329-0.337,5.409-2.521
		c0.601,0.002,1.199,0.003,1.798,0.004c0,0.283,0,0.564,0,0.847c-2.042,2.494-5.006,3.066-8.106,3.356
		C505.916,90.605,506.217,90.042,506.515,89.481z"/>
	<path fill-rule="evenodd" clip-rule="evenodd" fill="#1C75BC" d="M494.833,87.787c-0.316-0.551-0.634-1.104-0.951-1.655
		c-0.255-0.753,0.218-1.115,0.863-1.385c0.447-0.085,0.891-0.082,1.335,0.016c1.106,0.474,1.979,1.081,1.604,2.409
		c-0.675,0.519-1.287,1.241-2.311,0.598C495.195,87.774,495.014,87.778,494.833,87.787z"/>
	<path fill-rule="evenodd" clip-rule="evenodd" fill="#1C75BC" d="M495.375,87.769c0.702-0.295,1.4-0.588,2.104-0.882
		c0.932-0.727,1.829-0.651,2.695,0.1c0.069,0.268,0.063,0.537-0.014,0.801C498.568,87.377,496.962,89.462,495.375,87.769z"/>
	<path fill-rule="evenodd" clip-rule="evenodd" fill="#1C75BC" d="M479.479,97.864c1.128-0.935,1.962-2.243,3.622-2.519
		c0.006,0.565,0.006,1.13,0.006,1.692c-0.684,0.883-1.371,1.765-2.701,0.836C480.097,97.869,479.785,97.866,479.479,97.864z"/>
	<path fill-rule="evenodd" clip-rule="evenodd" fill="#1C75BC" d="M480.406,97.873c0.898-0.279,1.8-0.558,2.701-0.836
		C482.696,98.687,482.212,100.132,480.406,97.873z"/>
	<path fill-rule="evenodd" clip-rule="evenodd" fill="#1C75BC" d="M513.713,66.848c-1.39-2.047,0.764-2.438,1.807-3.352
		c0.605,0.445,0.83,1.032,0.759,1.733c-0.249-0.022-0.497-0.039-0.746-0.045C514.924,65.74,514.318,66.293,513.713,66.848z"/>
	<path fill-rule="evenodd" clip-rule="evenodd" fill="#1C75BC" d="M484.978,90.217c-0.619-1.351-1.239-2.704-1.858-4.055
		c1.584-1.022,2.588-0.041,3.604,0.906c0.561,0.803,0.697,1.603-0.031,2.395l-0.002,0.013
		C486.122,89.723,485.551,89.971,484.978,90.217z"/>
	<path fill-rule="evenodd" clip-rule="evenodd" fill="#1C75BC" d="M474.097,58.483c-0.098-1.768,0.805-2.605,2.703-2.515
		c2.349-0.127,4.282-0.059,4.852,2.866c0.756,3.896-1.896,5.125-4.837,6.359C475.545,63.085,473.301,61.318,474.097,58.483z"/>
	<path fill-rule="evenodd" clip-rule="evenodd" fill="#1C75BC" d="M469.642,88.365c0.865,0,1.63,0.16,2.297,0.432
		c-0.704-2.573-2.369-4.696-3.995-6.838c-0.407,1.403-0.813,2.807-1.22,4.211c-0.295,0.996-0.528,1.986-0.055,2.949
		C467.482,88.646,468.471,88.365,469.642,88.365z"/>
	<path fill-rule="evenodd" clip-rule="evenodd" fill="#1C75BC" d="M481.302,76.08c-2.153,1.02-3.376,0.364-3.54-1.83
		c-0.126-1.619-0.048-3.25-0.061-4.874c0.063-0.579,0.409-0.943,0.979-1.145c0.905-0.055,1.262,0.608,1.717,1.139
		C482.07,71.447,480.989,73.845,481.302,76.08z"/>
	<path fill-rule="evenodd" clip-rule="evenodd" fill="#1C75BC" d="M478.619,68.523c-0.303,0.284-0.61,0.568-0.917,0.853
		c-0.873-0.66-0.895-1.582-0.896-2.511c0.886,0.005,1.774,0.008,2.661,0.014C480.014,67.795,479.278,68.143,478.619,68.523z"/>
	<path fill-rule="evenodd" clip-rule="evenodd" fill="#1C75BC" d="M475.904,48.425c1.001-1.035,2.341-0.789,3.602-0.835
		c-0.228,1.5-1.393,1.689-2.705,1.673C476.502,48.985,476.202,48.704,475.904,48.425z"/>
	<path fill-rule="evenodd" clip-rule="evenodd" fill="#1C75BC" d="M478.619,68.523c0.285-0.547,0.564-1.095,0.851-1.644
		c3.436-0.181,0.028,1.852,0.929,2.492C479.803,69.088,479.211,68.805,478.619,68.523z"/>
	<path fill-rule="evenodd" clip-rule="evenodd" fill="#1C75BC" d="M498.411,66.854c-0.596,0.281-1.195,0.561-1.788,0.843
		c0.136-0.848-0.48-2.116,0.551-2.437C498.249,64.928,498.206,66.154,498.411,66.854z"/>
	<path fill-rule="evenodd" clip-rule="evenodd" fill="#1C75BC" d="M503.79,81.098c-0.293,0.005-0.586,0.009-0.877,0.013
		c-0.377,0.404-0.544,0.98-1.138,1.206c-0.396,0.07-0.788,0.048-1.173-0.054c-1.008-0.624-2.215-0.764-3.317-1.162
		c-0.75-0.374-1.357-0.865-1.572-1.671c0.59-1.705,2.479-0.981,3.611-1.672c1.012,0.963,2.655-0.423,3.588,0.833
		c0.604,0.28,1.204,0.562,1.805,0.842c0.729,0.513,0.236,1.027,0,1.543C504.485,81.516,504.175,81.557,503.79,81.098z"/>
	<path fill-rule="evenodd" clip-rule="evenodd" fill="#1C75BC" d="M495.712,79.43c0.598,0.223,1.192,0.446,1.786,0.667
		c-0.155,1.065-1.188,1.463-1.864,2.143c-0.339,0.231-0.712,0.397-1.111,0.52c-0.854,0.188-1.675,0.131-2.457-0.262
		c-0.545-0.363-0.846-0.85-0.851-1.483C491.983,78.691,493.75,78.819,495.712,79.43z"/>
	<path fill-rule="evenodd" clip-rule="evenodd" fill="#1C75BC" d="M480.407,92.843c-2.112,0.302-2.356-1.166-2.728-2.504
		C482.018,87.933,480.133,91.406,480.407,92.843z"/>
	<path fill-rule="evenodd" clip-rule="evenodd" fill="#1C75BC" d="M491.215,86.127c-0.604,0.278-1.21,0.555-1.815,0.83
		c-1.247-0.225-1.887-1.128-2.571-1.986c-0.043-0.175-0.084-0.347-0.124-0.522c0.533-0.552,1.066-1.106,1.601-1.658
		c0.851,0.026,1.721-0.098,2.541,0.23c0.84,0.479,1.146,1.187,1.04,2.075C491.741,85.484,491.515,85.826,491.215,86.127z"/>
	<path fill-rule="evenodd" clip-rule="evenodd" fill="#1C75BC" d="M485.809,87.817c-0.866-0.597-1.405-1.65-2.689-1.655
		c1.051-0.831,1.67-2.445,3.585-1.713l0.043,0.036C489.16,86.259,487.118,86.947,485.809,87.817z"/>
	<path fill-rule="evenodd" clip-rule="evenodd" fill="#1C75BC" d="M490.317,83.624c-0.845,0.076-1.613,0.007-2.012-0.833
		c0.97-0.592,1.939-1.185,2.91-1.776c0.338,0.307,0.677,0.615,1.017,0.925C492.571,83.461,491.073,83.179,490.317,83.624z"/>
	<path fill-rule="evenodd" clip-rule="evenodd" fill="#1C75BC" d="M502.912,78.59c-1.257-0.045-2.598,0.2-3.588-0.833
		C500.154,79.392,503.049,73.337,502.912,78.59z"/>
	<path fill-rule="evenodd" clip-rule="evenodd" fill="#1C75BC" d="M472.303,79.438c-0.675-0.857-0.17-1.459,0.544-1.961
		c0.13-0.093,0.689,0.103,0.685,0.124c-0.082,0.612-0.211,1.22-0.333,1.828C472.903,79.835,472.607,79.857,472.303,79.438z"/>
	<path fill-rule="evenodd" clip-rule="evenodd" fill="#1C75BC" d="M472.303,79.438c0.298-0.005,0.598-0.008,0.896-0.009
		c-0.138,0.722,0.162,2.056-0.841,1.893C471.124,81.124,472.173,80.104,472.303,79.438z"/>
	<path fill-rule="evenodd" clip-rule="evenodd" fill="#1C75BC" d="M522.295,79.016c0.749-1.372-1.038-2.422-0.544-3.757
		c-0.817-2.612-2.978-4.245-5.019-5.969c-0.053-1.012-0.106-2.024-0.161-3.037c-0.097-0.34-0.196-0.683-0.293-1.024
		c-0.307-0.151-0.589-0.166-0.843-0.077c-0.501-0.194-0.886-0.175-1.198-0.017c0.548-0.49,1.245-0.91,1.282-1.639
		c-0.598-2.24-1.627-3.802-4.501-2.507l-0.001,0.006c-0.279,0.493-0.325,1.011-0.169,1.546c0.563,1.006-0.076,2.326,0.82,3.242
		c-0.576-0.055-1.014,0.149-1.389,0.47c-0.727,0.026-1.381,0.16-1.963,0.384c-1.207-0.266-2.41-0.533-3.616-0.799
		c-1.114,0.529-2.754-0.553-3.528,1.005c-0.921-0.086-1.841,0.742-2.763,0.01c-1.029-0.515-1.307,0.351-1.79,0.842
		c-0.981,0.845-1.9,1.7-3.418,1.73c-2.033,0.038-3.09,1.278-2.821,3.006c0.576,3.697-1.507,4.073-4.618,3.68
		c-1.46-0.184-2.971-0.032-4.461-0.032c-3.051-1.601-1.422-4.706-2.576-6.913c-0.371-0.825-1.033-1.439-1.679-2.067
		c0.104-0.105,0.226-0.191,0.318-0.313c0.362-0.576,0.538-1.199,0.524-1.867c-0.658-2.409-1.88-4.567-3.342-6.615
		c1.121-0.435,1.888-1.199,2.252-2.337v-6.705c0.311-0.707-0.085-1.175-0.631-1.591c-0.569-0.327-1.183-0.492-1.855-0.47
		c-1.572-0.153-3.211,0.281-4.712-0.474c-0.308-0.226-0.606-0.459-0.894-0.705c-1.142,0.572-2.707,0.404-3.747,1.153
		c-1.497,0.014-2.693,0.487-3.593,1.236c-0.25,0.01-0.498,0.021-0.746,0.031c-0.53,0.299-1.21,0.298-1.669,0.729
		c-0.369,0.466-0.742,0.931-0.906,1.481c-0.118-0.024-0.235-0.021-0.353-0.027c-0.319,3.845-0.628,7.696-0.674,11.571
		c-0.101,8.511,0.776,16.981,1.148,25.475c0.52,1.147,1.046,2.29,1.57,3.43c0.273,0.593,0.498,1.207,0.707,1.827
		c0.133-0.215,0.242-0.436,0.339-0.658c0.846-0.442,1.623-1.135,2.252-2.121c1.73-2.712,3.096-5.629,4.884-8.306
		c0.01,0.038,0.011,0.074,0.022,0.113c-0.179,2.708,1.197,4.694,2.915,6.521c2.314,0.432,3.731,2.094,4.253,4.037
		c0.883-0.474,1.793-0.886,2.822-1.039c1.432-0.297,1.249,0.926,1.714,1.549c0.781,1.245,1.706,2.303,3.447,2.317
		c0.601-0.277,1.201-0.551,1.802-0.828c0.027-1.434,0.055-2.866,0.081-4.301c0.59-1.132,0.043-2.3,0.116-3.453
		c0.31-0.864,1.115-1.246,1.871-1.676c0.817-0.452,1.578-0.98,2.354-1.49c0.911-0.649,1.924-1.17,2.776-1.895
		c0.829-1.205,2.257-1.17,3.517-1.488c1.38-0.625,2.869-0.942,4.345-1.279c0.905-0.204,1.833-0.572,2.638,0.217
		c0.639,0.537,1.364,0.916,2.259,0.941c0.965-0.118,1.925-0.241,2.693-0.75c-0.085,3.709,2.792,5.049,6.013,6.123
		c1.395,0.407,2.57,1.201,3.863,1.788c1.456-0.929,2.914-1.859,4.369-2.79c1.158-1.553-0.05-2.285-1.231-3.024
		c-0.285-0.219-0.554-0.449-0.832-0.683c-0.442-0.53-0.45-1.049-0.339-1.563C520.312,79.912,521.263,80.126,522.295,79.016z"/>
	<path fill-rule="evenodd" clip-rule="evenodd" fill="#1C75BC" d="M468.696,46.788c1.5,0.32,2.996,0.34,4.491-0.045
		c0.303,0.563,0.606,1.125,0.911,1.685C472.244,48.041,469.746,49.475,468.696,46.788z"/>
	<path fill-rule="evenodd" clip-rule="evenodd" fill="#1C75BC" d="M516.429,58.331c-0.334-0.27-0.623-0.591-0.95-0.867
		c-0.437-0.15-0.832-0.351-1.191-0.59c-0.011-0.001-0.018-0.007-0.028-0.008c-0.122-0.024-0.239-0.038-0.36-0.054
		c-0.002-0.075-0.004-0.15-0.005-0.225c-0.631-0.511-1.118-1.155-1.461-1.874c-2.787-2.388-5.574-4.775-8.36-7.162
		c-0.168-1.304-1.258-1.906-2.274-2.563c-0.192-0.109-0.392-0.201-0.598-0.275c0.019-0.358,0.034-0.717,0.052-1.074
		c-0.035-0.103-0.071-0.207-0.106-0.31c-0.25-4.55-0.397-9.117-2.604-13.333c-0.622-0.598-1.207-1.254-2.164-1.251
		c-0.76,1.309-1.497,2.637-2.261,3.939c0.679,0.205,1.125,0.559,1.138,1.196c-0.615-0.152-1.231-0.201-1.852-0.005
		c-0.711,1.154-1.462,2.27-2.287,3.322v0c-1.103,1.404-2.342,2.688-3.82,3.762c0.028,0.066,0.073,0.126,0.104,0.191
		c-0.575,0.337-1.049,0.782-1.44,1.284c-0.157,0.101-0.3,0.213-0.443,0.328c-0.495,0.017-0.956,0.085-1.382,0.197
		c-0.13-0.057-0.254-0.111-0.398-0.167c-0.7,0.169-1.386,0.201-2.035,0.118c-2.836,0.731-5.672,1.463-8.509,2.194
		c-0.477,0.423-0.69,0.938-0.613,1.551c0.223,0.803,0.972,1.212,1.52,1.77c0.602,0,1.204-0.001,1.806-0.002
		c0.121-0.046,0.25-0.072,0.38-0.093c-0.518,0.36-0.993,0.769-1.276,1.363c-0.877,1.961-0.889,3.913,0.058,5.86
		c4.637,3.94,4.637,3.94,1.472,8.945c-0.149,0.236-0.285,0.479-0.482,0.693c-0.002,0.555-0.008,1.112-0.012,1.667
		c0.076,0.136,0.153,0.268,0.234,0.4c0.473,0.41,1.063,0.655,1.623,0.937c0.667,0.649,0.435,1.538,0.699,2.29
		c0.34,2.063-0.075,4.32,1.702,6.04c1.359,0.998,2.974,1.192,4.613,1.206c2.195,0.019,5.087,0.433,5.637-2.081
		c0.711-3.239,3.153-4.746,5.506-6.555c0.422-0.477,0.771-1.024,1.519-1.071c1.067,0.207,2.135,0.185,3.193-0.124
		c1.087-0.414,2.246-0.689,3.228-1.333c0.422-0.39,0.683-0.855,0.803-1.394c0.015-0.075,0.033-0.147,0.049-0.222
		c0.642-0.322,1.185-0.753,1.623-1.269c0.39-0.159,0.766-0.371,1.141-0.595c0.299-0.077,0.582-0.169,0.847-0.287
		c0.047-0.011,0.091-0.027,0.136-0.04c0.814,0.248,1.63,0.498,2.445,0.748c1.646,0.052,1.441-0.733,0.877-1.679
		c-0.124-0.116-0.249-0.231-0.372-0.347c1.139,0.518,2.496,0.782,2.811,2.242c0.393,0.654,0.771,1.313,1.203,1.94
		c0.282,0.285,0.617,0.481,1.014,0.585C517.628,63.596,517.958,60.948,516.429,58.331z"/>
	<path fill-rule="evenodd" clip-rule="evenodd" fill="#1C75BC" d="M503.79,81.098c0.31-0.039,0.618-0.079,0.927-0.122
		c0.884,0.372,2.429,0.185,1.81,1.836C505.299,82.677,504.31,82.211,503.79,81.098z"/>
	<path fill-rule="evenodd" clip-rule="evenodd" fill="#1C75BC" d="M500.174,86.987c-0.896-0.035-1.798-0.064-2.695-0.1
		c-0.594-0.462-1.187-0.923-1.775-1.386c0.831-1.616,2.451-1.342,3.925-1.424c1,0.022,2.001,0.059,2.837,0.681
		c0.146,0.187,0.293,0.376,0.434,0.565C502.353,86.387,501.415,86.899,500.174,86.987z"/>
	<path fill-rule="evenodd" clip-rule="evenodd" fill="#1C75BC" d="M501.995,81.939c0.306-0.277,0.611-0.553,0.918-0.829
		c0.029,0.969,0.262,1.745,1.156,2.48c1.081,0.886,0.938,1.035-1.17,1.732l-0.108-0.139c-0.719-0.47-2.029-0.237-2.084-1.51
		C500.782,82.867,501.484,82.462,501.995,81.939z"/>
	<path fill-rule="evenodd" clip-rule="evenodd" fill="#1C75BC" d="M490.317,83.624c0.637-0.561,1.277-1.125,1.915-1.684
		c0.833,0.007,1.662,0.009,2.491,0.017c0.914,0.522,1.077,1.311,0.907,2.214c-0.176,0.4-0.413,0.762-0.712,1.086
		c-0.346,0.291-0.691,0.585-1.036,0.875c-0.606-0.008-1.213-0.014-1.82-0.021c-0.301-0.246-0.581-0.507-0.839-0.793
		C490.922,84.753,490.617,84.188,490.317,83.624z"/>
	<path fill-rule="evenodd" clip-rule="evenodd" fill="#1C75BC" d="M485.809,87.817c-0.109-1.215,1.84-1.926,0.938-3.334
		c1.649,0.116,2.502,0.971,2.653,2.475c-0.596,1.121-1.5,1.956-2.709,2.505C486.398,88.913,486.104,88.364,485.809,87.817z"/>
	<path fill-rule="evenodd" clip-rule="evenodd" fill="#1C75BC" d="M491.223,85.318c0.278,0.265,0.559,0.529,0.839,0.793
		c-0.281,0.006-0.566,0.012-0.847,0.016C491.215,85.859,491.218,85.587,491.223,85.318z"/>
	<path fill-rule="evenodd" clip-rule="evenodd" fill="#1C75BC" d="M494.918,85.256c-0.092-0.231-0.116-0.468-0.071-0.712
		c0.9-0.947,1.99-1.441,3.383-1.202c0.959,0.283,2.048,0.457,1.788,1.794c-1.438,0.12-2.877,0.243-4.314,0.364
		C495.46,85.366,495.2,85.284,494.918,85.256z"/>
	<path fill-rule="evenodd" clip-rule="evenodd" fill="#1C75BC" d="M498.381,84.398c-1.18,0.05-2.355,0.097-3.534,0.146
		c-0.042-0.863-0.079-1.725-0.123-2.588c-0.001,0,0.13-0.04,0.13-0.04c2.098-1.155,4.189-1.159,6.272,0.03
		c0.288-0.004,0.581-0.006,0.868-0.007c-0.325,0.578-0.651,1.154-0.979,1.735C500.321,84.491,499.11,83.685,498.381,84.398z"/>
	<path fill-rule="evenodd" clip-rule="evenodd" fill="#1C75BC" d="M501.126,81.946c-2.092-0.009-4.183-0.019-6.272-0.03
		c-0.096-1.834,1.512-1.525,2.645-1.819C498.884,80.417,500.798,79.831,501.126,81.946z"/>
	<path fill-rule="evenodd" clip-rule="evenodd" fill="#1C75BC" d="M498.381,84.398c0.881-0.242,1.757-0.483,2.635-0.726
		c0.595,0.504,1.185,1.008,1.775,1.512c-0.924-0.017-1.848-0.032-2.773-0.047C499.474,84.891,498.927,84.644,498.381,84.398z"/>
</g>
</svg>
